<mxfile host="app.diagrams.net" modified="2024-02-29T17:22:48.958Z" agent="Mozilla/5.0 (Windows NT 10.0; Win64; x64) AppleWebKit/537.36 (KHTML, like Gecko) Chrome/121.0.0.0 Safari/537.36 OPR/107.0.0.0" etag="ouwYgKdcJ5VqRoP5o8Bf" version="24.0.0" type="github">
  <diagram id="R2lEEEUBdFMjLlhIrx00" name="Page-1">
    <mxGraphModel dx="768" dy="1047" grid="1" gridSize="10" guides="1" tooltips="1" connect="1" arrows="1" fold="1" page="1" pageScale="1" pageWidth="850" pageHeight="1100" math="0" shadow="0" extFonts="Permanent Marker^https://fonts.googleapis.com/css?family=Permanent+Marker">
      <root>
        <mxCell id="0" />
        <mxCell id="1" parent="0" />
        <mxCell id="ilI_wevBFXlqRfM9SDds-45" style="edgeStyle=none;curved=1;rounded=0;orthogonalLoop=1;jettySize=auto;html=1;exitX=1;exitY=0.25;exitDx=0;exitDy=0;entryX=0;entryY=0.5;entryDx=0;entryDy=0;fontSize=12;startSize=8;endSize=8;" edge="1" parent="1" source="ilI_wevBFXlqRfM9SDds-1" target="ilI_wevBFXlqRfM9SDds-44">
          <mxGeometry relative="1" as="geometry" />
        </mxCell>
        <mxCell id="ilI_wevBFXlqRfM9SDds-1" value="Usuario" style="whiteSpace=wrap;html=1;align=center;labelBackgroundColor=none;" vertex="1" parent="1">
          <mxGeometry x="150" y="322.5" width="60" height="25" as="geometry" />
        </mxCell>
        <mxCell id="ilI_wevBFXlqRfM9SDds-4" style="edgeStyle=none;curved=1;rounded=0;orthogonalLoop=1;jettySize=auto;html=1;entryX=0;entryY=0.5;entryDx=0;entryDy=0;fontSize=12;startSize=8;endSize=8;labelBackgroundColor=none;fontColor=default;" edge="1" parent="1" source="ilI_wevBFXlqRfM9SDds-2" target="ilI_wevBFXlqRfM9SDds-1">
          <mxGeometry relative="1" as="geometry" />
        </mxCell>
        <mxCell id="ilI_wevBFXlqRfM9SDds-2" value="id_Usuario" style="ellipse;whiteSpace=wrap;html=1;align=center;fontStyle=4;labelBackgroundColor=none;" vertex="1" parent="1">
          <mxGeometry x="30" y="320" width="70" height="30" as="geometry" />
        </mxCell>
        <mxCell id="ilI_wevBFXlqRfM9SDds-11" style="edgeStyle=orthogonalEdgeStyle;rounded=0;orthogonalLoop=1;jettySize=auto;html=1;exitX=1;exitY=0.5;exitDx=0;exitDy=0;entryX=0.25;entryY=0;entryDx=0;entryDy=0;fontSize=12;startSize=8;endSize=8;" edge="1" parent="1" source="ilI_wevBFXlqRfM9SDds-5" target="ilI_wevBFXlqRfM9SDds-1">
          <mxGeometry relative="1" as="geometry" />
        </mxCell>
        <mxCell id="ilI_wevBFXlqRfM9SDds-5" value="Nombre" style="ellipse;whiteSpace=wrap;html=1;align=center;fontStyle=4;labelBackgroundColor=none;" vertex="1" parent="1">
          <mxGeometry x="30" y="260" width="70" height="30" as="geometry" />
        </mxCell>
        <mxCell id="ilI_wevBFXlqRfM9SDds-16" style="edgeStyle=none;curved=1;rounded=0;orthogonalLoop=1;jettySize=auto;html=1;fontSize=12;startSize=8;endSize=8;" edge="1" parent="1" source="ilI_wevBFXlqRfM9SDds-6">
          <mxGeometry relative="1" as="geometry">
            <mxPoint x="190" y="225" as="targetPoint" />
          </mxGeometry>
        </mxCell>
        <mxCell id="ilI_wevBFXlqRfM9SDds-6" value="A_Paterno" style="ellipse;whiteSpace=wrap;html=1;align=center;fontStyle=4;labelBackgroundColor=none;" vertex="1" parent="1">
          <mxGeometry x="30" y="210" width="70" height="30" as="geometry" />
        </mxCell>
        <mxCell id="ilI_wevBFXlqRfM9SDds-15" style="edgeStyle=orthogonalEdgeStyle;rounded=0;orthogonalLoop=1;jettySize=auto;html=1;fontSize=12;startSize=8;endSize=8;" edge="1" parent="1" source="ilI_wevBFXlqRfM9SDds-7">
          <mxGeometry relative="1" as="geometry">
            <mxPoint x="190" y="320" as="targetPoint" />
          </mxGeometry>
        </mxCell>
        <mxCell id="ilI_wevBFXlqRfM9SDds-7" value="A_Materno" style="ellipse;whiteSpace=wrap;html=1;align=center;fontStyle=4;labelBackgroundColor=none;" vertex="1" parent="1">
          <mxGeometry x="30" y="140" width="70" height="30" as="geometry" />
        </mxCell>
        <mxCell id="ilI_wevBFXlqRfM9SDds-22" style="edgeStyle=none;curved=1;rounded=0;orthogonalLoop=1;jettySize=auto;html=1;fontSize=12;startSize=8;endSize=8;" edge="1" parent="1" source="ilI_wevBFXlqRfM9SDds-17">
          <mxGeometry relative="1" as="geometry">
            <mxPoint x="190" y="155" as="targetPoint" />
          </mxGeometry>
        </mxCell>
        <mxCell id="ilI_wevBFXlqRfM9SDds-17" value="Password" style="ellipse;whiteSpace=wrap;html=1;align=center;fontStyle=4;labelBackgroundColor=none;" vertex="1" parent="1">
          <mxGeometry x="220" y="140" width="70" height="30" as="geometry" />
        </mxCell>
        <mxCell id="ilI_wevBFXlqRfM9SDds-28" style="edgeStyle=none;curved=1;rounded=0;orthogonalLoop=1;jettySize=auto;html=1;fontSize=12;startSize=8;endSize=8;" edge="1" parent="1" source="ilI_wevBFXlqRfM9SDds-20">
          <mxGeometry relative="1" as="geometry">
            <mxPoint x="190" y="225" as="targetPoint" />
          </mxGeometry>
        </mxCell>
        <mxCell id="ilI_wevBFXlqRfM9SDds-20" value="UserName" style="ellipse;whiteSpace=wrap;html=1;align=center;fontStyle=4;labelBackgroundColor=none;" vertex="1" parent="1">
          <mxGeometry x="230" y="210" width="70" height="30" as="geometry" />
        </mxCell>
        <mxCell id="ilI_wevBFXlqRfM9SDds-25" style="edgeStyle=none;curved=1;rounded=0;orthogonalLoop=1;jettySize=auto;html=1;exitX=0;exitY=0.5;exitDx=0;exitDy=0;fontSize=12;startSize=8;endSize=8;" edge="1" parent="1" source="ilI_wevBFXlqRfM9SDds-21">
          <mxGeometry relative="1" as="geometry">
            <mxPoint x="190" y="275.66666666666674" as="targetPoint" />
          </mxGeometry>
        </mxCell>
        <mxCell id="ilI_wevBFXlqRfM9SDds-21" value="id_TUsuario" style="ellipse;whiteSpace=wrap;html=1;align=center;fontStyle=4;labelBackgroundColor=none;" vertex="1" parent="1">
          <mxGeometry x="230" y="260" width="70" height="30" as="geometry" />
        </mxCell>
        <mxCell id="ilI_wevBFXlqRfM9SDds-27" style="edgeStyle=orthogonalEdgeStyle;rounded=0;orthogonalLoop=1;jettySize=auto;html=1;fontSize=12;startSize=8;endSize=8;" edge="1" parent="1" source="ilI_wevBFXlqRfM9SDds-26">
          <mxGeometry relative="1" as="geometry">
            <mxPoint x="190" y="160" as="targetPoint" />
          </mxGeometry>
        </mxCell>
        <mxCell id="ilI_wevBFXlqRfM9SDds-26" value="Email" style="ellipse;whiteSpace=wrap;html=1;align=center;fontStyle=4;labelBackgroundColor=none;" vertex="1" parent="1">
          <mxGeometry x="220" y="80" width="70" height="30" as="geometry" />
        </mxCell>
        <mxCell id="ilI_wevBFXlqRfM9SDds-47" style="edgeStyle=orthogonalEdgeStyle;rounded=0;orthogonalLoop=1;jettySize=auto;html=1;exitX=0.5;exitY=1;exitDx=0;exitDy=0;fontSize=12;startSize=8;endSize=8;" edge="1" parent="1" source="ilI_wevBFXlqRfM9SDds-29">
          <mxGeometry relative="1" as="geometry">
            <mxPoint x="430" y="300" as="targetPoint" />
          </mxGeometry>
        </mxCell>
        <mxCell id="ilI_wevBFXlqRfM9SDds-29" value="id_TUser" style="ellipse;whiteSpace=wrap;html=1;align=center;fontStyle=4;labelBackgroundColor=none;" vertex="1" parent="1">
          <mxGeometry x="410" y="230" width="70" height="30" as="geometry" />
        </mxCell>
        <mxCell id="ilI_wevBFXlqRfM9SDds-30" value="Tipo:User" style="whiteSpace=wrap;html=1;align=center;labelBackgroundColor=none;" vertex="1" parent="1">
          <mxGeometry x="490" y="290" width="60" height="25" as="geometry" />
        </mxCell>
        <mxCell id="ilI_wevBFXlqRfM9SDds-36" style="edgeStyle=elbowEdgeStyle;rounded=0;orthogonalLoop=1;jettySize=auto;html=1;entryX=0.5;entryY=0;entryDx=0;entryDy=0;fontSize=12;startSize=8;endSize=8;" edge="1" parent="1" source="ilI_wevBFXlqRfM9SDds-31" target="ilI_wevBFXlqRfM9SDds-30">
          <mxGeometry relative="1" as="geometry" />
        </mxCell>
        <mxCell id="ilI_wevBFXlqRfM9SDds-31" value="Nom_Tu" style="ellipse;whiteSpace=wrap;html=1;align=center;fontStyle=4;labelBackgroundColor=none;" vertex="1" parent="1">
          <mxGeometry x="440" y="170" width="70" height="30" as="geometry" />
        </mxCell>
        <mxCell id="ilI_wevBFXlqRfM9SDds-43" style="edgeStyle=elbowEdgeStyle;rounded=0;orthogonalLoop=1;jettySize=auto;html=1;fontSize=12;startSize=8;endSize=8;" edge="1" parent="1" source="ilI_wevBFXlqRfM9SDds-32">
          <mxGeometry relative="1" as="geometry">
            <mxPoint x="510" y="240" as="targetPoint" />
          </mxGeometry>
        </mxCell>
        <mxCell id="ilI_wevBFXlqRfM9SDds-32" value="Descriptcion" style="ellipse;whiteSpace=wrap;html=1;align=center;fontStyle=4;labelBackgroundColor=none;" vertex="1" parent="1">
          <mxGeometry x="540" y="190" width="70" height="30" as="geometry" />
        </mxCell>
        <mxCell id="ilI_wevBFXlqRfM9SDds-46" style="edgeStyle=orthogonalEdgeStyle;rounded=0;orthogonalLoop=1;jettySize=auto;html=1;entryX=0;entryY=0.5;entryDx=0;entryDy=0;fontSize=12;startSize=8;endSize=8;" edge="1" parent="1" source="ilI_wevBFXlqRfM9SDds-44" target="ilI_wevBFXlqRfM9SDds-30">
          <mxGeometry relative="1" as="geometry" />
        </mxCell>
        <mxCell id="ilI_wevBFXlqRfM9SDds-44" value="Tiene" style="shape=rhombus;perimeter=rhombusPerimeter;whiteSpace=wrap;html=1;align=center;" vertex="1" parent="1">
          <mxGeometry x="280" y="310" width="80" height="37.5" as="geometry" />
        </mxCell>
      </root>
    </mxGraphModel>
  </diagram>
</mxfile>
